<svg width="186" height="47" viewBox="0 0 186 47" fill="none" xmlns="http://www.w3.org/2000/svg">
<g clip-path="url(#clip0)">
<path d="M3.68952 18.2273L6.31074 28.3047C6.88344 30.5074 7.41209 32.5669 7.78655 34.6154H7.9077C8.35925 32.611 9.00905 30.4853 9.66986 28.3047L12.9078 18.2273H15.9365L19.0093 28.1395C19.7472 30.5184 20.3199 32.611 20.7715 34.6154H20.9257C21.3081 32.445 21.8119 30.2976 22.4345 28.1835L25.265 18.2714H28.8334L22.4345 38.0957H19.1305L16.1017 28.6351C15.4079 26.4324 14.8352 24.461 14.3396 22.1261H14.3176C13.8209 24.3293 13.1995 26.5024 12.4563 28.6351L9.26236 38.0626H5.95831L0 18.2273H3.68952Z" fill="#47585B"/>
<path d="M49.9683 27.9853C49.9683 35.3202 44.8911 38.5142 40.0561 38.5142C34.6815 38.5142 30.5405 34.5823 30.5405 28.3047C30.5405 21.6966 34.8908 17.7758 40.3755 17.7758C46.1136 17.7758 49.9683 21.9168 49.9683 27.9853ZM34.23 28.1835C34.23 32.5338 36.7301 35.8048 40.2544 35.8048C43.7787 35.8048 46.2788 32.5669 46.2788 28.0954C46.2788 24.7363 44.6047 20.4741 40.3425 20.4741C36.0803 20.4741 34.23 24.4169 34.23 28.1835Z" fill="#47585B"/>
<path d="M54.5279 24.4169C54.5279 22.082 54.5279 20.0115 54.3627 18.2273H57.5236L57.6447 22.1151H57.8099C58.1513 20.9025 58.8681 19.8294 59.8575 19.0497C60.8469 18.2701 62.0579 17.8241 63.3167 17.7758C63.6619 17.772 64.0061 17.8127 64.3409 17.8969V21.3001C63.939 21.2155 63.5291 21.1748 63.1184 21.1789C60.5743 21.1789 58.7681 23.1063 58.2835 25.8046C58.1689 26.3741 58.1062 26.9529 58.0963 27.5337V38.1067H54.5279V24.4169Z" fill="#47585B"/>
<path d="M68.1075 8.96497H71.709V38.0626H68.1075V8.96497Z" fill="#47585B"/>
<path d="M94.9034 8.96497V32.9413C94.9034 34.7035 94.9034 36.7079 95.0686 38.0626H91.8306L91.6765 34.6154H91.5884C90.9454 35.8455 89.9666 36.868 88.7657 37.5639C87.5648 38.2599 86.191 38.6009 84.804 38.5472C80.0131 38.5472 76.3236 34.4942 76.3236 28.4699C76.3236 21.8618 80.3766 17.8088 85.2115 17.8088C86.3897 17.7324 87.5668 17.973 88.6205 18.5056C89.6741 19.0383 90.5658 19.8435 91.2029 20.8375H91.28V8.96497H94.9034ZM91.302 26.3002C91.307 25.7888 91.2516 25.2787 91.1368 24.7803C90.8783 23.5888 90.2167 22.523 89.2637 21.7625C88.3107 21.0021 87.1245 20.5937 85.9054 20.6062C82.1718 20.6062 79.9581 23.9103 79.9581 28.3157C79.9581 32.3246 81.9295 35.6507 85.8173 35.6507C87.0583 35.6468 88.2605 35.2171 89.2227 34.4332C90.185 33.6494 90.849 32.559 91.1038 31.3444C91.2383 30.8191 91.3049 30.2787 91.302 29.7364V26.3002Z" fill="#47585B"/>
<path d="M105.245 13.4695V18.2273H110.41V20.9256H105.245V31.6197C105.245 34.0867 105.95 35.4744 107.954 35.4744C108.66 35.5033 109.366 35.4215 110.047 35.2321L110.212 37.9304C109.187 38.309 108.1 38.4921 107.007 38.4701C106.285 38.5069 105.563 38.3862 104.891 38.1161C104.22 37.8461 103.615 37.4332 103.12 36.9062C102.095 35.8048 101.721 34.0867 101.721 31.7519V20.9256H98.648V18.2273H101.721V14.5818L105.245 13.4695Z" fill="#FFBA08"/>
<path d="M114.474 24.4169C114.474 22.082 114.474 20.0115 114.309 18.2273H117.47L117.591 22.1151H117.756C118.098 20.9025 118.815 19.8294 119.804 19.0497C120.793 18.2701 122.004 17.8241 123.263 17.7758C123.608 17.772 123.953 17.8127 124.287 17.8969V21.3001C123.886 21.2155 123.476 21.1748 123.065 21.1789C120.521 21.1789 118.66 23.1063 118.23 25.8046C118.125 26.3603 118.07 26.9242 118.065 27.4896V38.0626H114.496L114.474 24.4169Z" fill="#FFBA08"/>
<path d="M132.063 12.6545C132.063 13.2475 131.827 13.8161 131.408 14.2354C130.989 14.6547 130.42 14.8902 129.827 14.8902C129.234 14.8902 128.666 14.6547 128.246 14.2354C127.827 13.8161 127.591 13.2475 127.591 12.6545C127.584 12.3559 127.637 12.059 127.748 11.7816C127.859 11.5043 128.025 11.2524 128.236 11.0412C128.447 10.83 128.699 10.664 128.976 10.5532C129.254 10.4424 129.551 10.3892 129.849 10.3967C130.144 10.3952 130.436 10.4528 130.709 10.5663C130.981 10.6798 131.227 10.8467 131.434 11.0573C131.64 11.2678 131.802 11.5177 131.91 11.7921C132.019 12.0664 132.07 12.3597 132.063 12.6545V12.6545ZM128.043 38.0626V18.2383H131.656V38.0626H128.043Z" fill="#FFBA08"/>
<path d="M137.669 24.7033C137.669 22.1591 137.581 20.1106 137.504 18.2273H140.742L140.896 21.6305H140.973C141.686 20.408 142.72 19.4031 143.962 18.7239C145.204 18.0447 146.607 17.7169 148.022 17.7758C152.812 17.7758 156.425 21.8287 156.425 27.8531C156.425 34.9899 152.019 38.5142 147.405 38.5142C146.205 38.5671 145.012 38.3077 143.943 37.7614C142.873 37.2151 141.964 36.4005 141.303 35.3974H141.215V46.1686H137.669V24.7033ZM141.226 29.9897C141.239 30.4855 141.294 30.9793 141.391 31.4656C141.694 32.6709 142.39 33.7407 143.37 34.505C144.349 35.2693 145.556 35.6842 146.799 35.6837C150.61 35.6837 152.823 32.5669 152.823 27.9743C152.823 23.9984 150.731 20.6062 146.92 20.6062C145.647 20.6423 144.423 21.0998 143.438 21.9071C142.453 22.7144 141.764 23.8257 141.48 25.0667C141.328 25.5448 141.243 26.0413 141.226 26.5425V29.9897Z" fill="#FFBA08"/>
<path d="M-1.10135 35.4084C100.774 44.88 160.687 18.2273 160.687 18.2273C160.687 18.2273 118.56 48.173 -2.65425 42.3689" fill="#F5F8FA"/>
<path d="M101.765 33.0405C138.781 27.3685 159.035 18.3375 159.035 18.3375C159.035 18.3375 138.109 32.655 103.307 37.2036" stroke="#FFBA08" stroke-miterlimit="10"/>
<path d="M5.41865 36.1793C37.5489 38.7989 69.8732 37.7458 101.765 33.0405" stroke="#47585B" stroke-miterlimit="10"/>
<path d="M175.621 22.6107C175.049 19.0203 174.52 15.6281 173.958 12.0928L173.055 12.8307C171.044 14.6044 168.732 16.0032 166.227 16.9608C165.833 17.1335 165.403 17.2058 164.974 17.1712C164.545 17.1366 164.132 16.9962 163.771 16.7625C162.218 15.7713 160.61 14.8462 159.013 13.899C159.252 13.5493 159.587 13.276 159.978 13.1119C160.369 12.9478 160.799 12.8999 161.216 12.9739C162.474 13.1079 163.739 13.1704 165.004 13.1611C165.402 13.1549 165.787 13.0239 166.106 12.7867C170.511 9.04207 174.917 5.28279 179.322 1.50884C180.467 0.501132 181.949 -0.0376843 183.474 -1.13854e-05C184.84 -1.13854e-05 185.412 0.903095 184.829 2.20269C184.506 2.85423 184.061 3.43756 183.518 3.92079C182.23 5.09924 180.886 6.2116 179.542 7.32396C179.368 7.4522 179.224 7.61748 179.121 7.80791C179.019 7.99835 178.959 8.2092 178.948 8.42531C178.661 12.1479 178.309 15.8704 178.022 19.593C178.02 19.97 177.925 20.3407 177.747 20.6728C177.568 21.0049 177.311 21.2883 176.998 21.4983C176.52 21.8449 176.061 22.2162 175.621 22.6107V22.6107Z" fill="#47585B"/>
<path d="M163.484 6.9605C164.509 6.07943 165.225 4.93402 166.877 5.18733C168.529 5.44064 170.181 5.45166 171.921 5.57281L172.483 5.6499C171.227 6.75125 170.082 7.67638 168.925 8.63455C168.859 8.68244 168.784 8.716 168.704 8.73307C168.625 8.75015 168.542 8.75035 168.463 8.73368C166.921 8.24908 165.379 7.75348 163.848 7.24685C163.738 7.21381 163.661 7.10368 163.484 6.9605Z" fill="#47585B"/>
</g>
<defs>
<clipPath id="clip0">
<rect width="185.06" height="46.1686" fill="white"/>
</clipPath>
</defs>
</svg>
